<mxfile host="app.diagrams.net" modified="2024-01-26T01:16:37.365Z" agent="Mozilla/5.0 (Windows NT 10.0; Win64; x64) AppleWebKit/537.36 (KHTML, like Gecko) Chrome/119.0.0.0 Safari/537.36" etag="xTbmnlvKFCmsoKgqhUQx" version="23.0.2" type="github">
  <diagram name="Trang-1" id="grSbfRh_PgpcbdRgXVrF">
    <mxGraphModel dx="1286" dy="682" grid="1" gridSize="10" guides="1" tooltips="1" connect="1" arrows="1" fold="1" page="1" pageScale="1" pageWidth="1654" pageHeight="2336" math="0" shadow="0">
      <root>
        <mxCell id="0" />
        <mxCell id="1" parent="0" />
        <mxCell id="BhpOOVz-xvH5h9rG7hqA-3" value="AWS Cloud" style="points=[[0,0],[0.25,0],[0.5,0],[0.75,0],[1,0],[1,0.25],[1,0.5],[1,0.75],[1,1],[0.75,1],[0.5,1],[0.25,1],[0,1],[0,0.75],[0,0.5],[0,0.25]];outlineConnect=0;gradientColor=none;html=1;whiteSpace=wrap;fontSize=12;fontStyle=0;container=1;pointerEvents=0;collapsible=0;recursiveResize=0;shape=mxgraph.aws4.group;grIcon=mxgraph.aws4.group_aws_cloud_alt;strokeColor=#232F3E;fillColor=none;verticalAlign=top;align=left;spacingLeft=30;fontColor=#232F3E;dashed=0;" parent="1" vertex="1">
          <mxGeometry x="900" y="540" width="660" height="730" as="geometry" />
        </mxCell>
        <mxCell id="BhpOOVz-xvH5h9rG7hqA-7" value="VPC" style="points=[[0,0],[0.25,0],[0.5,0],[0.75,0],[1,0],[1,0.25],[1,0.5],[1,0.75],[1,1],[0.75,1],[0.5,1],[0.25,1],[0,1],[0,0.75],[0,0.5],[0,0.25]];outlineConnect=0;html=1;whiteSpace=wrap;fontSize=12;fontStyle=0;container=1;pointerEvents=0;collapsible=0;recursiveResize=0;shape=mxgraph.aws4.group;grIcon=mxgraph.aws4.group_vpc2;strokeColor=#9673a6;fillColor=#e1d5e7;verticalAlign=top;align=left;spacingLeft=30;dashed=0;" parent="BhpOOVz-xvH5h9rG7hqA-3" vertex="1">
          <mxGeometry x="80" y="80" width="400" height="490" as="geometry" />
        </mxCell>
        <mxCell id="BhpOOVz-xvH5h9rG7hqA-8" value="Public subnet" style="points=[[0,0],[0.25,0],[0.5,0],[0.75,0],[1,0],[1,0.25],[1,0.5],[1,0.75],[1,1],[0.75,1],[0.5,1],[0.25,1],[0,1],[0,0.75],[0,0.5],[0,0.25]];outlineConnect=0;html=1;whiteSpace=wrap;fontSize=12;fontStyle=0;container=1;pointerEvents=0;collapsible=0;recursiveResize=0;shape=mxgraph.aws4.group;grIcon=mxgraph.aws4.group_security_group;grStroke=0;strokeColor=#82b366;fillColor=#d5e8d4;verticalAlign=top;align=left;spacingLeft=30;dashed=0;" parent="BhpOOVz-xvH5h9rG7hqA-7" vertex="1">
          <mxGeometry x="40" y="30" width="330" height="440" as="geometry" />
        </mxCell>
        <mxCell id="BhpOOVz-xvH5h9rG7hqA-10" value="" style="rounded=0;whiteSpace=wrap;html=1;direction=south;fillColor=#fff2cc;strokeColor=#d6b656;" parent="BhpOOVz-xvH5h9rG7hqA-8" vertex="1">
          <mxGeometry x="25" y="35" width="265" height="370" as="geometry" />
        </mxCell>
        <mxCell id="BhpOOVz-xvH5h9rG7hqA-11" value="" style="sketch=0;points=[[0,0,0],[0.25,0,0],[0.5,0,0],[0.75,0,0],[1,0,0],[0,1,0],[0.25,1,0],[0.5,1,0],[0.75,1,0],[1,1,0],[0,0.25,0],[0,0.5,0],[0,0.75,0],[1,0.25,0],[1,0.5,0],[1,0.75,0]];outlineConnect=0;fontColor=#232F3E;fillColor=#ED7100;strokeColor=#ffffff;dashed=0;verticalLabelPosition=bottom;verticalAlign=top;align=center;html=1;fontSize=12;fontStyle=0;aspect=fixed;shape=mxgraph.aws4.resourceIcon;resIcon=mxgraph.aws4.ec2;" parent="BhpOOVz-xvH5h9rG7hqA-8" vertex="1">
          <mxGeometry x="25" y="40" width="50" height="50" as="geometry" />
        </mxCell>
        <mxCell id="BhpOOVz-xvH5h9rG7hqA-12" value="EC2&lt;br&gt;" style="text;html=1;strokeColor=none;fillColor=none;align=center;verticalAlign=middle;whiteSpace=wrap;rounded=0;" parent="BhpOOVz-xvH5h9rG7hqA-8" vertex="1">
          <mxGeometry x="75" y="40" width="75" height="50" as="geometry" />
        </mxCell>
        <mxCell id="-mnpApBPDpD-3cTkM6Ct-1" value="Cloudwatch&lt;br&gt;Agent" style="rounded=0;whiteSpace=wrap;html=1;" vertex="1" parent="BhpOOVz-xvH5h9rG7hqA-8">
          <mxGeometry x="97.5" y="330" width="120" height="60" as="geometry" />
        </mxCell>
        <mxCell id="-mnpApBPDpD-3cTkM6Ct-2" value="" style="sketch=0;outlineConnect=0;fillColor=#0050ef;strokeColor=#001DBC;dashed=0;verticalLabelPosition=bottom;verticalAlign=top;align=center;html=1;fontSize=12;fontStyle=0;aspect=fixed;pointerEvents=1;shape=mxgraph.aws4.rds_mariadb_instance_alt;fontColor=#ffffff;" vertex="1" parent="BhpOOVz-xvH5h9rG7hqA-8">
          <mxGeometry x="127" y="250" width="58" height="58" as="geometry" />
        </mxCell>
        <mxCell id="-mnpApBPDpD-3cTkM6Ct-19" value="" style="shape=image;html=1;verticalAlign=top;verticalLabelPosition=bottom;labelBackgroundColor=#ffffff;imageAspect=0;aspect=fixed;image=https://cdn4.iconfinder.com/data/icons/scripting-and-programming-languages/512/php-128.png" vertex="1" parent="BhpOOVz-xvH5h9rG7hqA-8">
          <mxGeometry x="105" y="80" width="80" height="80" as="geometry" />
        </mxCell>
        <mxCell id="-mnpApBPDpD-3cTkM6Ct-24" value="" style="outlineConnect=0;dashed=0;verticalLabelPosition=bottom;verticalAlign=top;align=center;html=1;shape=mxgraph.aws3.internet_gateway;fillColor=#F58534;gradientColor=none;" vertex="1" parent="BhpOOVz-xvH5h9rG7hqA-7">
          <mxGeometry x="-20" y="250" width="40" height="40" as="geometry" />
        </mxCell>
        <mxCell id="-mnpApBPDpD-3cTkM6Ct-26" value="IG" style="text;html=1;strokeColor=none;fillColor=none;align=center;verticalAlign=middle;whiteSpace=wrap;rounded=0;" vertex="1" parent="BhpOOVz-xvH5h9rG7hqA-7">
          <mxGeometry x="-15" y="290" width="30" height="20" as="geometry" />
        </mxCell>
        <mxCell id="BhpOOVz-xvH5h9rG7hqA-17" value="" style="ellipse;shape=cloud;whiteSpace=wrap;html=1;fillColor=#fff2cc;strokeColor=#d6b656;" parent="BhpOOVz-xvH5h9rG7hqA-3" vertex="1">
          <mxGeometry x="220" y="570" width="120" height="80" as="geometry" />
        </mxCell>
        <mxCell id="BhpOOVz-xvH5h9rG7hqA-21" value="Cloud 9" style="text;html=1;strokeColor=none;fillColor=none;align=center;verticalAlign=middle;whiteSpace=wrap;rounded=0;" parent="BhpOOVz-xvH5h9rG7hqA-3" vertex="1">
          <mxGeometry x="250" y="650" width="60" height="30" as="geometry" />
        </mxCell>
        <mxCell id="BhpOOVz-xvH5h9rG7hqA-22" value="" style="outlineConnect=0;dashed=0;verticalLabelPosition=bottom;verticalAlign=top;align=center;html=1;shape=mxgraph.aws3.cloudwatch;fillColor=#759C3E;gradientColor=none;" parent="BhpOOVz-xvH5h9rG7hqA-3" vertex="1">
          <mxGeometry x="485" y="170" width="80" height="90" as="geometry" />
        </mxCell>
        <mxCell id="BhpOOVz-xvH5h9rG7hqA-23" value="" style="sketch=0;points=[[0,0,0],[0.25,0,0],[0.5,0,0],[0.75,0,0],[1,0,0],[0,1,0],[0.25,1,0],[0.5,1,0],[0.75,1,0],[1,1,0],[0,0.25,0],[0,0.5,0],[0,0.75,0],[1,0.25,0],[1,0.5,0],[1,0.75,0]];outlineConnect=0;fontColor=#232F3E;fillColor=#7AA116;strokeColor=#ffffff;dashed=0;verticalLabelPosition=bottom;verticalAlign=top;align=center;html=1;fontSize=12;fontStyle=0;aspect=fixed;shape=mxgraph.aws4.resourceIcon;resIcon=mxgraph.aws4.s3;" parent="BhpOOVz-xvH5h9rG7hqA-3" vertex="1">
          <mxGeometry x="490" y="360" width="85" height="85" as="geometry" />
        </mxCell>
        <mxCell id="BhpOOVz-xvH5h9rG7hqA-24" value="" style="endArrow=classic;html=1;rounded=0;entryX=0;entryY=0.5;entryDx=0;entryDy=0;entryPerimeter=0;exitX=0.603;exitY=-0.007;exitDx=0;exitDy=0;exitPerimeter=0;" parent="BhpOOVz-xvH5h9rG7hqA-3" source="BhpOOVz-xvH5h9rG7hqA-10" target="BhpOOVz-xvH5h9rG7hqA-23" edge="1">
          <mxGeometry width="50" height="50" relative="1" as="geometry">
            <mxPoint x="310" y="410" as="sourcePoint" />
            <mxPoint x="360" y="360" as="targetPoint" />
          </mxGeometry>
        </mxCell>
        <mxCell id="BhpOOVz-xvH5h9rG7hqA-25" value="" style="endArrow=classic;html=1;rounded=0;entryX=0;entryY=0.78;entryDx=0;entryDy=0;entryPerimeter=0;exitX=0.5;exitY=0;exitDx=0;exitDy=0;" parent="BhpOOVz-xvH5h9rG7hqA-3" source="BhpOOVz-xvH5h9rG7hqA-10" target="BhpOOVz-xvH5h9rG7hqA-22" edge="1">
          <mxGeometry width="50" height="50" relative="1" as="geometry">
            <mxPoint x="310" y="410" as="sourcePoint" />
            <mxPoint x="360" y="360" as="targetPoint" />
          </mxGeometry>
        </mxCell>
        <mxCell id="BhpOOVz-xvH5h9rG7hqA-26" value="" style="endArrow=classic;html=1;rounded=0;exitX=0.544;exitY=0.046;exitDx=0;exitDy=0;exitPerimeter=0;entryX=1.006;entryY=0.463;entryDx=0;entryDy=0;entryPerimeter=0;" parent="BhpOOVz-xvH5h9rG7hqA-3" source="BhpOOVz-xvH5h9rG7hqA-17" target="BhpOOVz-xvH5h9rG7hqA-10" edge="1">
          <mxGeometry width="50" height="50" relative="1" as="geometry">
            <mxPoint x="210" y="380" as="sourcePoint" />
            <mxPoint x="263" y="470" as="targetPoint" />
          </mxGeometry>
        </mxCell>
        <mxCell id="-mnpApBPDpD-3cTkM6Ct-5" value="" style="whiteSpace=wrap;html=1;aspect=fixed;fillColor=#1ba1e2;fontColor=#ffffff;strokeColor=#006EAF;" vertex="1" parent="BhpOOVz-xvH5h9rG7hqA-3">
          <mxGeometry x="30" y="40" width="30" height="30" as="geometry" />
        </mxCell>
        <mxCell id="-mnpApBPDpD-3cTkM6Ct-10" value="" style="endArrow=none;dashed=1;html=1;dashPattern=1 3;strokeWidth=2;rounded=0;fillColor=#1ba1e2;strokeColor=#006EAF;" edge="1" parent="BhpOOVz-xvH5h9rG7hqA-3">
          <mxGeometry width="50" height="50" relative="1" as="geometry">
            <mxPoint x="44.23000000000002" y="70" as="sourcePoint" />
            <mxPoint x="44" y="680" as="targetPoint" />
          </mxGeometry>
        </mxCell>
        <mxCell id="-mnpApBPDpD-3cTkM6Ct-12" value="" style="endArrow=none;dashed=1;html=1;dashPattern=1 3;strokeWidth=2;rounded=0;fillColor=#1ba1e2;strokeColor=#006EAF;" edge="1" parent="BhpOOVz-xvH5h9rG7hqA-3">
          <mxGeometry width="50" height="50" relative="1" as="geometry">
            <mxPoint x="40" y="680" as="sourcePoint" />
            <mxPoint x="640" y="680" as="targetPoint" />
          </mxGeometry>
        </mxCell>
        <mxCell id="-mnpApBPDpD-3cTkM6Ct-13" value="" style="endArrow=none;dashed=1;html=1;dashPattern=1 3;strokeWidth=2;rounded=0;fillColor=#1ba1e2;strokeColor=#006EAF;" edge="1" parent="BhpOOVz-xvH5h9rG7hqA-3">
          <mxGeometry width="50" height="50" relative="1" as="geometry">
            <mxPoint x="630" y="680" as="sourcePoint" />
            <mxPoint x="630" y="40" as="targetPoint" />
          </mxGeometry>
        </mxCell>
        <mxCell id="-mnpApBPDpD-3cTkM6Ct-14" value="" style="endArrow=none;dashed=1;html=1;dashPattern=1 3;strokeWidth=2;rounded=0;fillColor=#1ba1e2;strokeColor=#006EAF;" edge="1" parent="BhpOOVz-xvH5h9rG7hqA-3">
          <mxGeometry width="50" height="50" relative="1" as="geometry">
            <mxPoint x="60" y="40.000000000000014" as="sourcePoint" />
            <mxPoint x="630" y="35.769999999999996" as="targetPoint" />
          </mxGeometry>
        </mxCell>
        <mxCell id="-mnpApBPDpD-3cTkM6Ct-15" value="" style="html=1;verticalLabelPosition=bottom;align=center;labelBackgroundColor=#ffffff;verticalAlign=top;strokeWidth=2;shadow=0;dashed=0;shape=mxgraph.ios7.icons.flag;fillColor=#1ba1e2;fontColor=#ffffff;strokeColor=#006EAF;" vertex="1" parent="BhpOOVz-xvH5h9rG7hqA-3">
          <mxGeometry x="35" y="45" width="20" height="20" as="geometry" />
        </mxCell>
        <mxCell id="-mnpApBPDpD-3cTkM6Ct-17" value="cloud 9" style="text;html=1;strokeColor=none;fillColor=none;align=center;verticalAlign=middle;whiteSpace=wrap;rounded=0;" vertex="1" parent="BhpOOVz-xvH5h9rG7hqA-3">
          <mxGeometry x="60" y="40" width="60" height="30" as="geometry" />
        </mxCell>
        <mxCell id="-mnpApBPDpD-3cTkM6Ct-27" value="" style="shape=image;html=1;verticalAlign=top;verticalLabelPosition=bottom;labelBackgroundColor=#ffffff;imageAspect=0;aspect=fixed;image=https://cdn0.iconfinder.com/data/icons/phosphor-regular-vol-3/256/number-nine-128.png" vertex="1" parent="BhpOOVz-xvH5h9rG7hqA-3">
          <mxGeometry x="261" y="591" width="38" height="38" as="geometry" />
        </mxCell>
        <mxCell id="BhpOOVz-xvH5h9rG7hqA-4" value="" style="shape=actor;whiteSpace=wrap;html=1;" parent="1" vertex="1">
          <mxGeometry x="797" y="1108" width="40" height="60" as="geometry" />
        </mxCell>
        <mxCell id="BhpOOVz-xvH5h9rG7hqA-5" value="" style="shape=actor;whiteSpace=wrap;html=1;" parent="1" vertex="1">
          <mxGeometry x="807" y="870" width="40" height="60" as="geometry" />
        </mxCell>
        <mxCell id="BhpOOVz-xvH5h9rG7hqA-18" value="User" style="text;html=1;strokeColor=none;fillColor=none;align=center;verticalAlign=middle;whiteSpace=wrap;rounded=0;" parent="1" vertex="1">
          <mxGeometry x="797" y="940" width="60" height="30" as="geometry" />
        </mxCell>
        <mxCell id="BhpOOVz-xvH5h9rG7hqA-19" value="Admin" style="text;html=1;strokeColor=none;fillColor=none;align=center;verticalAlign=middle;whiteSpace=wrap;rounded=0;" parent="1" vertex="1">
          <mxGeometry x="787" y="1168" width="60" height="30" as="geometry" />
        </mxCell>
        <mxCell id="BhpOOVz-xvH5h9rG7hqA-20" value="" style="endArrow=classic;html=1;rounded=0;entryX=0.07;entryY=0.4;entryDx=0;entryDy=0;entryPerimeter=0;exitX=1.096;exitY=0.566;exitDx=0;exitDy=0;exitPerimeter=0;" parent="1" target="BhpOOVz-xvH5h9rG7hqA-17" edge="1" source="BhpOOVz-xvH5h9rG7hqA-4">
          <mxGeometry width="50" height="50" relative="1" as="geometry">
            <mxPoint x="850" y="1132" as="sourcePoint" />
            <mxPoint x="1250" y="920" as="targetPoint" />
          </mxGeometry>
        </mxCell>
        <mxCell id="-mnpApBPDpD-3cTkM6Ct-22" value="" style="endArrow=classic;html=1;rounded=0;" edge="1" parent="1">
          <mxGeometry width="50" height="50" relative="1" as="geometry">
            <mxPoint x="850" y="910" as="sourcePoint" />
            <mxPoint x="960" y="893" as="targetPoint" />
          </mxGeometry>
        </mxCell>
      </root>
    </mxGraphModel>
  </diagram>
</mxfile>
